<svg width="10" height="9" viewBox="0 0 10 9" fill="none" xmlns="http://www.w3.org/2000/svg">
<path d="M3.08224 8.13804C3.16319 8.21899 3.273 8.26445 3.38747 8.26445C3.50198 8.26445 3.61176 8.21896 3.69268 8.13804L9.57749 2.25323C9.65847 2.17228 9.70393 2.0625 9.70393 1.94802C9.70393 1.83352 9.65847 1.72373 9.57749 1.64278L8.35657 0.421892C8.18802 0.253345 7.9147 0.253317 7.74612 0.421892L3.38759 4.78048L2.16664 3.55953C2.08569 3.47858 1.97588 3.43309 1.8614 3.43309C1.74693 3.43309 1.63714 3.47858 1.55619 3.55953L0.335272 4.78045C0.166726 4.94903 0.166726 5.22232 0.335272 5.3909L3.08224 8.13804Z" fill="white"/>
</svg>
