<svg width="13" height="12" viewBox="0 0 13 12" fill="none" xmlns="http://www.w3.org/2000/svg">
<path d="M12.4561 4.52206C12.3739 4.26918 12.1496 4.09014 11.8853 4.06623L8.28015 3.73893L6.85537 0.40324C6.75018 0.158171 6.51083 0 6.24442 0C5.978 0 5.73856 0.158171 5.63403 0.40324L4.20925 3.73893L0.603534 4.06623C0.339217 4.09062 0.115396 4.26966 0.0326898 4.52206C-0.0495399 4.77495 0.0264011 5.05232 0.226306 5.22764L2.95151 7.61725L2.14798 11.1563C2.0892 11.4165 2.1902 11.6856 2.40611 11.8417C2.52216 11.926 2.65851 11.9681 2.79534 11.9681C2.91292 11.9681 3.0306 11.9368 3.13569 11.874L6.24442 10.0152L9.35257 11.874C9.58058 12.0102 9.86729 11.9977 10.0827 11.8417C10.2986 11.6856 10.3996 11.4165 10.3408 11.1563L9.53732 7.61725L12.2625 5.22764C12.4623 5.05232 12.5384 4.77552 12.4561 4.52206Z" fill="white"/>
</svg>
